<svg xmlns="http://www.w3.org/2000/svg" width="16" height="16" fill="none" viewBox="0 0 16 16">
    <path fill="#65D46B"
          d="M9.257 7.042a.24.24 0 0 1 .2-.119c.156 0 .261.158.19.296-1.48 2.839-5.794 1.262-6.418 6.102a.61.61 0 0 0 .617.679h.076c.406 0 .699-.373.698-.779 0-.514.138-.794.25-.936.078-.098.21-.103.327-.058 3.64 1.404 7.52-.447 8.125-4.38.508-3.305-.663-5.14-1.086-5.678a.46.46 0 0 0-.37-.169c-.233 0-.435.153-.54.362-1.6 3.232-8.773 1.96-8.773 6.715 0 .739.147 1.192.238 1.4a.24.24 0 0 0 .224.138c.096 0 .185-.05.24-.127 1.822-2.555 5.01-1.785 6.002-3.446">
    </path>
</svg>