<svg xmlns="http://www.w3.org/2000/svg" width="16" height="16" fill="none" viewBox="0 0 16 16">
    <path fill="#FF6262" fill-rule="evenodd"
          d="M11.945 3.89c.12-.403.715-.685 1.49-.553.278.048.565-.144.565-.426v-.514A.397.397 0 0 0 13.603 2h-.207c-1.694 0-2.465.657-2.68 1.847a.28.28 0 0 1-.291.235c-.284-.02-.76-.052-1.206-.076a15 15 0 0 0-.361-.035c-1.48-.127-2.56 1.208-2.726 2.683-.41 3.64-2.38 4.921-3.415 5.348-.366.15-.668.47-.712.864-.044.402.191.78.585.872.53.123 1.35.262 2.357.262 4.472 0 8.578-1.867 9.015-7.02.05-.605-.14-1.21-.625-1.574a5 5 0 0 0-.476-.315V5.09c-.7-.391-1.063-.701-.916-1.199M7.622 5.415c-.788.923.19 1.524.905.685.804-.942-.169-1.547-.905-.685"
          clip-rule="evenodd">
    </path>
</svg>