<svg xmlns="http://www.w3.org/2000/svg" viewBox="0 0 83.88 67.28"><path d="m34.31,46.84c-.85-.85-.85-2.24,0-3.09l10.13-10.13-10.13-10.13c-.85-.85-.85-2.24,0-3.09l2.43-2.43c.85-.85,2.24-.85,3.09,0l10.13,10.13,10.13-10.13c.85-.85,2.24-.85,3.09,0l2.43,2.43c.85.85.85,2.24,0,3.09l-10.13,10.13,10.13,10.13c.85.85.85,2.24,0,3.09l-2.43,2.43c-.85.85-2.24.85-3.09,0l-10.13-10.13-10.13,10.13c-.85.85-2.24.85-3.09,0l-2.43-2.43Z"/><path d="m15.97,8.1C19.5,3.02,25.29,0,31.48,0h33.49c10.44,0,18.91,8.46,18.91,18.91v29.47c0,10.44-8.46,18.91-18.91,18.91H31.48c-6.19,0-11.98-3.02-15.52-8.1L1.48,38.37c-1.98-2.84-1.98-6.62,0-9.46L15.97,8.11h0Zm15.52-.29c-3.63,0-7.03,1.77-9.1,4.76l-14.48,20.81c-.11.16-.11.38,0,.54l14.48,20.81c2.07,2.98,5.48,4.76,9.1,4.76h33.49c6.12,0,11.09-4.97,11.09-11.09v-29.47c0-6.12-4.97-11.09-11.09-11.09H31.48Z" fill-rule="evenodd" fill="currentColor"/></svg>